<svg xmlns="http://www.w3.org/2000/svg" width="512" height="512" viewBox="0 0 512 512" version="1.1">
	<path d="M 157.734 1.025 C 144.903 4.262, 134.091 14.595, 130.349 27.197 C 128.062 34.896, 128.858 46.005, 132.214 53.236 C 135.608 60.547, 143.419 68.369, 150.764 71.812 C 155.728 74.138, 157.778 74.500, 166 74.500 C 174.569 74.500, 176.137 74.195, 182 71.392 C 217.181 54.567, 206.956 2.755, 168.001 0.459 C 164.426 0.248, 159.806 0.503, 157.734 1.025 M 96.798 88.931 C 79.912 94.330, 67.618 108.847, 64.981 126.500 C 64.308 131.012, 64.036 158.913, 64.218 205 L 64.500 276.500 66.873 280.317 C 73.223 290.531, 87.039 292.887, 96.061 285.295 C 102.777 279.644, 102.448 283.072, 103 213 L 103.500 149.500 106.895 149.176 C 108.937 148.981, 110.625 149.379, 111.130 150.176 C 111.592 150.904, 111.981 228.225, 111.994 322 L 112.020 492.500 114.381 497.571 C 121.663 513.210, 142.345 516.588, 154.765 504.168 C 161.942 496.992, 161.445 504.793, 162 390.500 L 162.500 287.500 166.219 287.192 L 169.937 286.883 170.219 389.692 C 170.532 504.171, 169.983 495.548, 177.481 503.847 C 182.339 509.224, 190.492 512.397, 197.622 511.683 C 207.079 510.737, 214.453 505.409, 218.634 496.500 L 220.980 491.500 220.990 320.250 L 221 149 224.921 149 C 228.394 149, 228.905 149.314, 229.405 151.750 C 229.716 153.262, 233.350 175.650, 237.481 201.500 C 241.611 227.350, 245.508 250.436, 246.140 252.803 C 246.772 255.169, 257.687 274.969, 270.395 296.803 L 293.500 336.500 294 414.500 C 294.567 503.013, 293.992 497.211, 303.010 505.319 C 307.840 509.662, 313.317 512.005, 318.616 511.994 C 326.857 511.978, 336.474 506.453, 340.662 499.328 L 343.500 494.500 344 460 L 344.500 425.500 348 425.500 L 351.500 425.500 352 460.500 C 352.477 493.915, 352.597 495.681, 354.653 499.500 C 362.485 514.053, 381.846 516.051, 392.912 503.448 C 394.684 501.429, 396.666 498.590, 397.317 497.139 C 398.180 495.214, 398.635 473.666, 399 417.500 L 399.500 340.500 422.595 299.500 C 435.297 276.950, 446.256 256.779, 446.947 254.675 C 449.427 247.131, 446.461 238.741, 439.413 233.366 C 436.085 230.828, 434.836 230.500, 428.492 230.500 C 416.909 230.500, 415.682 231.738, 400.946 258.292 C 394.168 270.507, 387.573 282.193, 386.291 284.262 L 383.960 288.024 346.850 287.762 L 309.740 287.500 296.523 264.412 L 283.307 241.324 275.617 184.412 C 271.387 153.110, 267.473 125.475, 266.919 123 C 264.179 110.763, 255.278 98.628, 244.752 92.781 C 234.257 86.950, 234.875 86.995, 165.846 87.054 C 107.387 87.103, 102.060 87.248, 96.798 88.931 M 334.756 218.238 C 332.697 221.768, 329.193 226.117, 326.970 227.904 C 318.627 234.609, 315.249 243.554, 317.158 253.892 C 321.124 275.372, 347.420 283.426, 362.933 267.913 C 373.179 257.667, 373.063 239.956, 362.684 229.875 C 359.280 226.570, 359.080 226.008, 358.798 218.945 L 358.500 211.500 355.148 217.299 C 353.305 220.489, 351.280 222.929, 350.648 222.722 C 350.017 222.514, 349.275 219.977, 349 217.083 L 348.500 211.820 345.540 216.910 C 341.548 223.774, 339.210 223.775, 338.802 216.911 L 338.500 211.821 334.756 218.238" stroke="none" fill="#000000" fill-rule="evenodd"/>
</svg>